<svg width="284" height="244" viewBox="0 0 284 244" fill="none" xmlns="http://www.w3.org/2000/svg">
<path d="M7.25684 212.399H2.94336V215.927H7.9541V217H1.63086V207.047H7.88574V208.127H2.94336V211.326H7.25684V212.399ZM10.5859 209.604L10.627 210.533C11.1921 209.822 11.9303 209.467 12.8418 209.467C14.4049 209.467 15.1934 210.349 15.207 212.112V217H13.9424V212.105C13.9378 211.572 13.8148 211.178 13.5732 210.923C13.3363 210.668 12.9648 210.54 12.459 210.54C12.0488 210.54 11.6888 210.649 11.3789 210.868C11.069 211.087 10.8275 211.374 10.6543 211.729V217H9.38965V209.604H10.5859ZM19.5547 215.284L21.3867 209.604H22.6787L20.0264 217H19.0625L16.3828 209.604H17.6748L19.5547 215.284ZM25.2695 217H24.0049V209.604H25.2695V217ZM23.9023 207.642C23.9023 207.437 23.9639 207.263 24.0869 207.122C24.2145 206.981 24.4014 206.91 24.6475 206.91C24.8936 206.91 25.0804 206.981 25.208 207.122C25.3356 207.263 25.3994 207.437 25.3994 207.642C25.3994 207.847 25.3356 208.018 25.208 208.154C25.0804 208.291 24.8936 208.359 24.6475 208.359C24.4014 208.359 24.2145 208.291 24.0869 208.154C23.9639 208.018 23.9023 207.847 23.9023 207.642ZM30.3691 217.137C29.3665 217.137 28.5508 216.809 27.9219 216.152C27.293 215.492 26.9785 214.61 26.9785 213.507V213.274C26.9785 212.541 27.1175 211.887 27.3955 211.312C27.6781 210.734 28.07 210.283 28.5713 209.959C29.0771 209.631 29.624 209.467 30.2119 209.467C31.1735 209.467 31.9209 209.784 32.4541 210.417C32.9873 211.05 33.2539 211.957 33.2539 213.138V213.664H28.2432C28.2614 214.393 28.4733 214.983 28.8789 215.435C29.2891 215.881 29.8086 216.104 30.4375 216.104C30.8841 216.104 31.2624 216.013 31.5723 215.831C31.8822 215.649 32.1533 215.407 32.3857 215.106L33.1582 215.708C32.5384 216.66 31.6087 217.137 30.3691 217.137ZM30.2119 210.506C29.7015 210.506 29.2731 210.693 28.9268 211.066C28.5804 211.436 28.3662 211.955 28.2842 212.625H31.9893V212.529C31.9528 211.887 31.7796 211.39 31.4697 211.039C31.1598 210.684 30.7406 210.506 30.2119 210.506ZM37.8613 213.233C37.8613 212.509 38.0026 211.857 38.2852 211.278C38.5723 210.7 38.9688 210.253 39.4746 209.938C39.985 209.624 40.5661 209.467 41.2178 209.467C42.2249 209.467 43.0384 209.815 43.6582 210.513C44.2826 211.21 44.5947 212.137 44.5947 213.295V213.384C44.5947 214.104 44.4557 214.751 44.1777 215.325C43.9043 215.895 43.5101 216.339 42.9951 216.658C42.4847 216.977 41.8968 217.137 41.2314 217.137C40.2288 217.137 39.4154 216.788 38.791 216.091C38.1712 215.394 37.8613 214.471 37.8613 213.322V213.233ZM39.1328 213.384C39.1328 214.204 39.3219 214.863 39.7002 215.359C40.083 215.856 40.5934 216.104 41.2314 216.104C41.874 216.104 42.3844 215.854 42.7627 215.353C43.141 214.847 43.3301 214.14 43.3301 213.233C43.3301 212.422 43.1364 211.766 42.749 211.265C42.3662 210.759 41.8558 210.506 41.2178 210.506C40.5934 210.506 40.0898 210.754 39.707 211.251C39.3242 211.748 39.1328 212.459 39.1328 213.384ZM52.6201 216.104C53.0713 216.104 53.4655 215.968 53.8027 215.694C54.14 215.421 54.3268 215.079 54.3633 214.669H55.5596C55.5368 215.093 55.391 215.496 55.1221 215.879C54.8532 216.262 54.4932 216.567 54.042 216.795C53.5954 217.023 53.1214 217.137 52.6201 217.137C51.613 217.137 50.8109 216.802 50.2139 216.132C49.6214 215.457 49.3252 214.537 49.3252 213.37V213.158C49.3252 212.438 49.4574 211.798 49.7217 211.237C49.986 210.677 50.3643 210.242 50.8564 209.932C51.3532 209.622 51.9388 209.467 52.6133 209.467C53.4427 209.467 54.1309 209.715 54.6777 210.212C55.2292 210.709 55.5231 211.354 55.5596 212.146H54.3633C54.3268 211.668 54.1445 211.276 53.8164 210.971C53.4928 210.661 53.0918 210.506 52.6133 210.506C51.9707 210.506 51.4717 210.738 51.1162 211.203C50.7653 211.663 50.5898 212.331 50.5898 213.206V213.445C50.5898 214.298 50.7653 214.954 51.1162 215.414C51.4671 215.874 51.9684 216.104 52.6201 216.104ZM56.6465 213.233C56.6465 212.509 56.7878 211.857 57.0703 211.278C57.3574 210.7 57.7539 210.253 58.2598 209.938C58.7702 209.624 59.3512 209.467 60.0029 209.467C61.0101 209.467 61.8236 209.815 62.4434 210.513C63.0677 211.21 63.3799 212.137 63.3799 213.295V213.384C63.3799 214.104 63.2409 214.751 62.9629 215.325C62.6895 215.895 62.2952 216.339 61.7803 216.658C61.2699 216.977 60.682 217.137 60.0166 217.137C59.014 217.137 58.2005 216.788 57.5762 216.091C56.9564 215.394 56.6465 214.471 56.6465 213.322V213.233ZM57.918 213.384C57.918 214.204 58.1071 214.863 58.4854 215.359C58.8682 215.856 59.3786 216.104 60.0166 216.104C60.6592 216.104 61.1696 215.854 61.5479 215.353C61.9261 214.847 62.1152 214.14 62.1152 213.233C62.1152 212.422 61.9215 211.766 61.5342 211.265C61.1514 210.759 60.641 210.506 60.0029 210.506C59.3786 210.506 58.875 210.754 58.4922 211.251C58.1094 211.748 57.918 212.459 57.918 213.384ZM60.5771 206.5H62.1084L60.2764 208.51H59.2578L60.5771 206.5ZM64.6582 213.24C64.6582 212.105 64.9271 211.194 65.4648 210.506C66.0026 209.813 66.7067 209.467 67.5771 209.467C68.443 209.467 69.1289 209.763 69.6348 210.355V206.5H70.8994V217H69.7373L69.6758 216.207C69.1699 216.827 68.4658 217.137 67.5635 217.137C66.7067 217.137 66.0072 216.786 65.4648 216.084C64.9271 215.382 64.6582 214.466 64.6582 213.336V213.24ZM65.9229 213.384C65.9229 214.222 66.096 214.879 66.4424 215.353C66.7887 215.826 67.2673 216.063 67.8779 216.063C68.68 216.063 69.2656 215.703 69.6348 214.983V211.586C69.2565 210.889 68.6755 210.54 67.8916 210.54C67.2718 210.54 66.7887 210.779 66.4424 211.258C66.096 211.736 65.9229 212.445 65.9229 213.384ZM74.2422 217H72.9775V209.604H74.2422V217ZM72.875 207.642C72.875 207.437 72.9365 207.263 73.0596 207.122C73.1872 206.981 73.374 206.91 73.6201 206.91C73.8662 206.91 74.0531 206.981 74.1807 207.122C74.3083 207.263 74.3721 207.437 74.3721 207.642C74.3721 207.847 74.3083 208.018 74.1807 208.154C74.0531 208.291 73.8662 208.359 73.6201 208.359C73.374 208.359 73.1872 208.291 73.0596 208.154C72.9365 208.018 72.875 207.847 72.875 207.642ZM75.9717 213.24C75.9717 212.087 76.2383 211.171 76.7715 210.492C77.3047 209.809 78.0111 209.467 78.8906 209.467C79.793 209.467 80.4971 209.786 81.0029 210.424L81.0645 209.604H82.2197V216.822C82.2197 217.779 81.9349 218.534 81.3652 219.085C80.8001 219.636 80.0391 219.912 79.082 219.912C78.5488 219.912 78.027 219.798 77.5166 219.57C77.0062 219.342 76.6165 219.03 76.3477 218.634L77.0039 217.875C77.5462 218.545 78.2093 218.88 78.9932 218.88C79.6084 218.88 80.0869 218.707 80.4287 218.36C80.7751 218.014 80.9482 217.526 80.9482 216.897V216.262C80.4424 216.845 79.752 217.137 78.877 217.137C78.0111 217.137 77.3092 216.788 76.7715 216.091C76.2383 215.394 75.9717 214.443 75.9717 213.24ZM77.2432 213.384C77.2432 214.218 77.4141 214.874 77.7559 215.353C78.0977 215.826 78.5762 216.063 79.1914 216.063C79.9889 216.063 80.5745 215.701 80.9482 214.977V211.6C80.5609 210.893 79.9798 210.54 79.2051 210.54C78.5898 210.54 78.109 210.779 77.7627 211.258C77.4163 211.736 77.2432 212.445 77.2432 213.384ZM83.7988 213.233C83.7988 212.509 83.9401 211.857 84.2227 211.278C84.5098 210.7 84.9062 210.253 85.4121 209.938C85.9225 209.624 86.5036 209.467 87.1553 209.467C88.1624 209.467 88.9759 209.815 89.5957 210.513C90.2201 211.21 90.5322 212.137 90.5322 213.295V213.384C90.5322 214.104 90.3932 214.751 90.1152 215.325C89.8418 215.895 89.4476 216.339 88.9326 216.658C88.4222 216.977 87.8343 217.137 87.1689 217.137C86.1663 217.137 85.3529 216.788 84.7285 216.091C84.1087 215.394 83.7988 214.471 83.7988 213.322V213.233ZM85.0703 213.384C85.0703 214.204 85.2594 214.863 85.6377 215.359C86.0205 215.856 86.5309 216.104 87.1689 216.104C87.8115 216.104 88.3219 215.854 88.7002 215.353C89.0785 214.847 89.2676 214.14 89.2676 213.233C89.2676 212.422 89.0739 211.766 88.6865 211.265C88.3037 210.759 87.7933 210.506 87.1553 210.506C86.5309 210.506 86.0273 210.754 85.6445 211.251C85.2617 211.748 85.0703 212.459 85.0703 213.384ZM95.2832 213.24C95.2832 212.105 95.5521 211.194 96.0898 210.506C96.6276 209.813 97.3317 209.467 98.2021 209.467C99.068 209.467 99.7539 209.763 100.26 210.355V206.5H101.524V217H100.362L100.301 216.207C99.7949 216.827 99.0908 217.137 98.1885 217.137C97.3317 217.137 96.6322 216.786 96.0898 216.084C95.5521 215.382 95.2832 214.466 95.2832 213.336V213.24ZM96.5479 213.384C96.5479 214.222 96.721 214.879 97.0674 215.353C97.4137 215.826 97.8923 216.063 98.5029 216.063C99.305 216.063 99.8906 215.703 100.26 214.983V211.586C99.8815 210.889 99.3005 210.54 98.5166 210.54C97.8968 210.54 97.4137 210.779 97.0674 211.258C96.721 211.736 96.5479 212.445 96.5479 213.384ZM106.562 217.137C105.56 217.137 104.744 216.809 104.115 216.152C103.486 215.492 103.172 214.61 103.172 213.507V213.274C103.172 212.541 103.311 211.887 103.589 211.312C103.871 210.734 104.263 210.283 104.765 209.959C105.271 209.631 105.817 209.467 106.405 209.467C107.367 209.467 108.114 209.784 108.647 210.417C109.181 211.05 109.447 211.957 109.447 213.138V213.664H104.437C104.455 214.393 104.667 214.983 105.072 215.435C105.482 215.881 106.002 216.104 106.631 216.104C107.077 216.104 107.456 216.013 107.766 215.831C108.076 215.649 108.347 215.407 108.579 215.106L109.352 215.708C108.732 216.66 107.802 217.137 106.562 217.137ZM106.405 210.506C105.895 210.506 105.466 210.693 105.12 211.066C104.774 211.436 104.56 211.955 104.478 212.625H108.183V212.529C108.146 211.887 107.973 211.39 107.663 211.039C107.353 210.684 106.934 210.506 106.405 210.506ZM115.224 215.038C115.224 214.696 115.094 214.432 114.834 214.245C114.579 214.054 114.13 213.89 113.487 213.753C112.849 213.616 112.341 213.452 111.963 213.261C111.589 213.069 111.311 212.841 111.129 212.577C110.951 212.313 110.862 211.998 110.862 211.634C110.862 211.028 111.118 210.515 111.628 210.096C112.143 209.676 112.799 209.467 113.597 209.467C114.435 209.467 115.114 209.683 115.634 210.116C116.158 210.549 116.42 211.103 116.42 211.777H115.148C115.148 211.431 115 211.132 114.704 210.882C114.412 210.631 114.043 210.506 113.597 210.506C113.136 210.506 112.776 210.606 112.517 210.807C112.257 211.007 112.127 211.269 112.127 211.593C112.127 211.898 112.248 212.128 112.489 212.283C112.731 212.438 113.166 212.586 113.795 212.728C114.428 212.869 114.941 213.037 115.333 213.233C115.725 213.429 116.014 213.666 116.201 213.944C116.393 214.218 116.488 214.553 116.488 214.949C116.488 215.61 116.224 216.141 115.695 216.542C115.167 216.938 114.481 217.137 113.638 217.137C113.045 217.137 112.521 217.032 112.065 216.822C111.61 216.613 111.252 216.321 110.992 215.947C110.737 215.569 110.609 215.161 110.609 214.724H111.874C111.897 215.147 112.065 215.485 112.38 215.735C112.699 215.981 113.118 216.104 113.638 216.104C114.116 216.104 114.499 216.009 114.786 215.817C115.078 215.621 115.224 215.362 115.224 215.038ZM119.852 207.812V209.604H121.232V210.581H119.852V215.168C119.852 215.464 119.913 215.688 120.036 215.838C120.159 215.984 120.369 216.057 120.665 216.057C120.811 216.057 121.011 216.029 121.267 215.975V217C120.934 217.091 120.61 217.137 120.296 217.137C119.731 217.137 119.305 216.966 119.018 216.624C118.73 216.282 118.587 215.797 118.587 215.168V210.581H117.24V209.604H118.587V207.812H119.852ZM127.282 217C127.209 216.854 127.15 216.594 127.104 216.221C126.517 216.831 125.815 217.137 124.999 217.137C124.27 217.137 123.671 216.932 123.201 216.521C122.736 216.107 122.504 215.583 122.504 214.949C122.504 214.179 122.796 213.582 123.379 213.158C123.967 212.73 124.792 212.516 125.854 212.516H127.084V211.935C127.084 211.493 126.952 211.142 126.688 210.882C126.423 210.618 126.034 210.485 125.519 210.485C125.067 210.485 124.689 210.599 124.384 210.827C124.078 211.055 123.926 211.331 123.926 211.654H122.654C122.654 211.285 122.784 210.93 123.044 210.588C123.308 210.242 123.664 209.968 124.11 209.768C124.562 209.567 125.056 209.467 125.594 209.467C126.446 209.467 127.114 209.681 127.597 210.109C128.08 210.533 128.33 211.119 128.349 211.866V215.271C128.349 215.95 128.435 216.49 128.608 216.891V217H127.282ZM125.184 216.036C125.58 216.036 125.956 215.934 126.312 215.729C126.667 215.523 126.924 215.257 127.084 214.929V213.411H126.093C124.543 213.411 123.769 213.865 123.769 214.771C123.769 215.168 123.901 215.478 124.165 215.701C124.429 215.924 124.769 216.036 125.184 216.036ZM138.11 215.038C138.11 214.696 137.98 214.432 137.721 214.245C137.465 214.054 137.017 213.89 136.374 213.753C135.736 213.616 135.228 213.452 134.85 213.261C134.476 213.069 134.198 212.841 134.016 212.577C133.838 212.313 133.749 211.998 133.749 211.634C133.749 211.028 134.004 210.515 134.515 210.096C135.03 209.676 135.686 209.467 136.483 209.467C137.322 209.467 138.001 209.683 138.521 210.116C139.045 210.549 139.307 211.103 139.307 211.777H138.035C138.035 211.431 137.887 211.132 137.591 210.882C137.299 210.631 136.93 210.506 136.483 210.506C136.023 210.506 135.663 210.606 135.403 210.807C135.144 211.007 135.014 211.269 135.014 211.593C135.014 211.898 135.134 212.128 135.376 212.283C135.618 212.438 136.053 212.586 136.682 212.728C137.315 212.869 137.828 213.037 138.22 213.233C138.612 213.429 138.901 213.666 139.088 213.944C139.279 214.218 139.375 214.553 139.375 214.949C139.375 215.61 139.111 216.141 138.582 216.542C138.053 216.938 137.368 217.137 136.524 217.137C135.932 217.137 135.408 217.032 134.952 216.822C134.496 216.613 134.139 216.321 133.879 215.947C133.624 215.569 133.496 215.161 133.496 214.724H134.761C134.784 215.147 134.952 215.485 135.267 215.735C135.586 215.981 136.005 216.104 136.524 216.104C137.003 216.104 137.386 216.009 137.673 215.817C137.965 215.621 138.11 215.362 138.11 215.038ZM145.589 217C145.516 216.854 145.457 216.594 145.411 216.221C144.823 216.831 144.121 217.137 143.306 217.137C142.576 217.137 141.977 216.932 141.508 216.521C141.043 216.107 140.811 215.583 140.811 214.949C140.811 214.179 141.102 213.582 141.686 213.158C142.273 212.73 143.098 212.516 144.16 212.516H145.391V211.935C145.391 211.493 145.258 211.142 144.994 210.882C144.73 210.618 144.34 210.485 143.825 210.485C143.374 210.485 142.996 210.599 142.69 210.827C142.385 211.055 142.232 211.331 142.232 211.654H140.961C140.961 211.285 141.091 210.93 141.351 210.588C141.615 210.242 141.97 209.968 142.417 209.768C142.868 209.567 143.363 209.467 143.9 209.467C144.753 209.467 145.42 209.681 145.903 210.109C146.386 210.533 146.637 211.119 146.655 211.866V215.271C146.655 215.95 146.742 216.49 146.915 216.891V217H145.589ZM143.49 216.036C143.887 216.036 144.263 215.934 144.618 215.729C144.974 215.523 145.231 215.257 145.391 214.929V213.411H144.399C142.85 213.411 142.075 213.865 142.075 214.771C142.075 215.168 142.207 215.478 142.472 215.701C142.736 215.924 143.076 216.036 143.49 216.036ZM150.012 217H148.747V206.5H150.012V217ZM156.608 217C156.535 216.854 156.476 216.594 156.431 216.221C155.843 216.831 155.141 217.137 154.325 217.137C153.596 217.137 152.997 216.932 152.527 216.521C152.062 216.107 151.83 215.583 151.83 214.949C151.83 214.179 152.122 213.582 152.705 213.158C153.293 212.73 154.118 212.516 155.18 212.516H156.41V211.935C156.41 211.493 156.278 211.142 156.014 210.882C155.749 210.618 155.36 210.485 154.845 210.485C154.394 210.485 154.015 210.599 153.71 210.827C153.405 211.055 153.252 211.331 153.252 211.654H151.98C151.98 211.285 152.11 210.93 152.37 210.588C152.634 210.242 152.99 209.968 153.437 209.768C153.888 209.567 154.382 209.467 154.92 209.467C155.772 209.467 156.44 209.681 156.923 210.109C157.406 210.533 157.657 211.119 157.675 211.866V215.271C157.675 215.95 157.761 216.49 157.935 216.891V217H156.608ZM154.51 216.036C154.906 216.036 155.282 215.934 155.638 215.729C155.993 215.523 156.251 215.257 156.41 214.929V213.411H155.419C153.869 213.411 153.095 213.865 153.095 214.771C153.095 215.168 153.227 215.478 153.491 215.701C153.756 215.924 154.095 216.036 154.51 216.036ZM169.378 213.384C169.378 214.509 169.12 215.416 168.605 216.104C168.09 216.793 167.393 217.137 166.514 217.137C165.616 217.137 164.91 216.852 164.395 216.282V219.844H163.13V209.604H164.285L164.347 210.424C164.862 209.786 165.577 209.467 166.493 209.467C167.382 209.467 168.084 209.802 168.599 210.472C169.118 211.142 169.378 212.074 169.378 213.268V213.384ZM168.113 213.24C168.113 212.406 167.936 211.748 167.58 211.265C167.225 210.782 166.737 210.54 166.117 210.54C165.352 210.54 164.777 210.88 164.395 211.559V215.093C164.773 215.767 165.352 216.104 166.131 216.104C166.737 216.104 167.218 215.865 167.573 215.387C167.933 214.904 168.113 214.188 168.113 213.24ZM175.558 217C175.485 216.854 175.425 216.594 175.38 216.221C174.792 216.831 174.09 217.137 173.274 217.137C172.545 217.137 171.946 216.932 171.477 216.521C171.012 216.107 170.779 215.583 170.779 214.949C170.779 214.179 171.071 213.582 171.654 213.158C172.242 212.73 173.067 212.516 174.129 212.516H175.359V211.935C175.359 211.493 175.227 211.142 174.963 210.882C174.699 210.618 174.309 210.485 173.794 210.485C173.343 210.485 172.965 210.599 172.659 210.827C172.354 211.055 172.201 211.331 172.201 211.654H170.93C170.93 211.285 171.06 210.93 171.319 210.588C171.584 210.242 171.939 209.968 172.386 209.768C172.837 209.567 173.331 209.467 173.869 209.467C174.721 209.467 175.389 209.681 175.872 210.109C176.355 210.533 176.606 211.119 176.624 211.866V215.271C176.624 215.95 176.711 216.49 176.884 216.891V217H175.558ZM173.459 216.036C173.855 216.036 174.231 215.934 174.587 215.729C174.942 215.523 175.2 215.257 175.359 214.929V213.411H174.368C172.819 213.411 172.044 213.865 172.044 214.771C172.044 215.168 172.176 215.478 172.44 215.701C172.705 215.924 173.044 216.036 173.459 216.036ZM182.182 210.738C181.99 210.706 181.783 210.69 181.56 210.69C180.73 210.69 180.167 211.044 179.871 211.75V217H178.606V209.604H179.837L179.857 210.458C180.272 209.797 180.86 209.467 181.621 209.467C181.867 209.467 182.054 209.499 182.182 209.562V210.738ZM187.644 217C187.571 216.854 187.511 216.594 187.466 216.221C186.878 216.831 186.176 217.137 185.36 217.137C184.631 217.137 184.032 216.932 183.562 216.521C183.098 216.107 182.865 215.583 182.865 214.949C182.865 214.179 183.157 213.582 183.74 213.158C184.328 212.73 185.153 212.516 186.215 212.516H187.445V211.935C187.445 211.493 187.313 211.142 187.049 210.882C186.785 210.618 186.395 210.485 185.88 210.485C185.429 210.485 185.05 210.599 184.745 210.827C184.44 211.055 184.287 211.331 184.287 211.654H183.016C183.016 211.285 183.146 210.93 183.405 210.588C183.67 210.242 184.025 209.968 184.472 209.768C184.923 209.567 185.417 209.467 185.955 209.467C186.807 209.467 187.475 209.681 187.958 210.109C188.441 210.533 188.692 211.119 188.71 211.866V215.271C188.71 215.95 188.797 216.49 188.97 216.891V217H187.644ZM185.545 216.036C185.941 216.036 186.317 215.934 186.673 215.729C187.028 215.523 187.286 215.257 187.445 214.929V213.411H186.454C184.905 213.411 184.13 213.865 184.13 214.771C184.13 215.168 184.262 215.478 184.526 215.701C184.791 215.924 185.13 216.036 185.545 216.036ZM198.472 215.038C198.472 214.696 198.342 214.432 198.082 214.245C197.827 214.054 197.378 213.89 196.735 213.753C196.097 213.616 195.589 213.452 195.211 213.261C194.837 213.069 194.559 212.841 194.377 212.577C194.199 212.313 194.11 211.998 194.11 211.634C194.11 211.028 194.366 210.515 194.876 210.096C195.391 209.676 196.047 209.467 196.845 209.467C197.683 209.467 198.362 209.683 198.882 210.116C199.406 210.549 199.668 211.103 199.668 211.777H198.396C198.396 211.431 198.248 211.132 197.952 210.882C197.66 210.631 197.291 210.506 196.845 210.506C196.384 210.506 196.024 210.606 195.765 210.807C195.505 211.007 195.375 211.269 195.375 211.593C195.375 211.898 195.496 212.128 195.737 212.283C195.979 212.438 196.414 212.586 197.043 212.728C197.676 212.869 198.189 213.037 198.581 213.233C198.973 213.429 199.262 213.666 199.449 213.944C199.641 214.218 199.736 214.553 199.736 214.949C199.736 215.61 199.472 216.141 198.943 216.542C198.415 216.938 197.729 217.137 196.886 217.137C196.293 217.137 195.769 217.032 195.313 216.822C194.858 216.613 194.5 216.321 194.24 215.947C193.985 215.569 193.857 215.161 193.857 214.724H195.122C195.145 215.147 195.313 215.485 195.628 215.735C195.947 215.981 196.366 216.104 196.886 216.104C197.364 216.104 197.747 216.009 198.034 215.817C198.326 215.621 198.472 215.362 198.472 215.038ZM204.453 217.137C203.451 217.137 202.635 216.809 202.006 216.152C201.377 215.492 201.062 214.61 201.062 213.507V213.274C201.062 212.541 201.201 211.887 201.479 211.312C201.762 210.734 202.154 210.283 202.655 209.959C203.161 209.631 203.708 209.467 204.296 209.467C205.257 209.467 206.005 209.784 206.538 210.417C207.071 211.05 207.338 211.957 207.338 213.138V213.664H202.327C202.345 214.393 202.557 214.983 202.963 215.435C203.373 215.881 203.893 216.104 204.521 216.104C204.968 216.104 205.346 216.013 205.656 215.831C205.966 215.649 206.237 215.407 206.47 215.106L207.242 215.708C206.622 216.66 205.693 217.137 204.453 217.137ZM204.296 210.506C203.785 210.506 203.357 210.693 203.011 211.066C202.664 211.436 202.45 211.955 202.368 212.625H206.073V212.529C206.037 211.887 205.864 211.39 205.554 211.039C205.244 210.684 204.825 210.506 204.296 210.506ZM213.374 216.269C212.882 216.847 212.16 217.137 211.207 217.137C210.419 217.137 209.817 216.909 209.402 216.453C208.992 215.993 208.785 215.314 208.78 214.416V209.604H210.045V214.382C210.045 215.503 210.501 216.063 211.412 216.063C212.378 216.063 213.021 215.703 213.34 214.983V209.604H214.604V217H213.401L213.374 216.269ZM220.839 215.038C220.839 214.696 220.709 214.432 220.449 214.245C220.194 214.054 219.745 213.89 219.103 213.753C218.465 213.616 217.956 213.452 217.578 213.261C217.204 213.069 216.926 212.841 216.744 212.577C216.566 212.313 216.478 211.998 216.478 211.634C216.478 211.028 216.733 210.515 217.243 210.096C217.758 209.676 218.414 209.467 219.212 209.467C220.05 209.467 220.729 209.683 221.249 210.116C221.773 210.549 222.035 211.103 222.035 211.777H220.764C220.764 211.431 220.616 211.132 220.319 210.882C220.028 210.631 219.659 210.506 219.212 210.506C218.752 210.506 218.392 210.606 218.132 210.807C217.872 211.007 217.742 211.269 217.742 211.593C217.742 211.898 217.863 212.128 218.104 212.283C218.346 212.438 218.781 212.586 219.41 212.728C220.044 212.869 220.556 213.037 220.948 213.233C221.34 213.429 221.63 213.666 221.816 213.944C222.008 214.218 222.104 214.553 222.104 214.949C222.104 215.61 221.839 216.141 221.311 216.542C220.782 216.938 220.096 217.137 219.253 217.137C218.66 217.137 218.136 217.032 217.681 216.822C217.225 216.613 216.867 216.321 216.607 215.947C216.352 215.569 216.225 215.161 216.225 214.724H217.489C217.512 215.147 217.681 215.485 217.995 215.735C218.314 215.981 218.733 216.104 219.253 216.104C219.731 216.104 220.114 216.009 220.401 215.817C220.693 215.621 220.839 215.362 220.839 215.038ZM231.79 217C231.717 216.854 231.658 216.594 231.612 216.221C231.024 216.831 230.323 217.137 229.507 217.137C228.778 217.137 228.178 216.932 227.709 216.521C227.244 216.107 227.012 215.583 227.012 214.949C227.012 214.179 227.303 213.582 227.887 213.158C228.475 212.73 229.299 212.516 230.361 212.516H231.592V211.935C231.592 211.493 231.46 211.142 231.195 210.882C230.931 210.618 230.541 210.485 230.026 210.485C229.575 210.485 229.197 210.599 228.892 210.827C228.586 211.055 228.434 211.331 228.434 211.654H227.162C227.162 211.285 227.292 210.93 227.552 210.588C227.816 210.242 228.172 209.968 228.618 209.768C229.069 209.567 229.564 209.467 230.102 209.467C230.954 209.467 231.621 209.681 232.104 210.109C232.588 210.533 232.838 211.119 232.856 211.866V215.271C232.856 215.95 232.943 216.49 233.116 216.891V217H231.79ZM229.691 216.036C230.088 216.036 230.464 215.934 230.819 215.729C231.175 215.523 231.432 215.257 231.592 214.929V213.411H230.601C229.051 213.411 228.276 213.865 228.276 214.771C228.276 215.168 228.409 215.478 228.673 215.701C228.937 215.924 229.277 216.036 229.691 216.036ZM236.028 209.604L236.062 210.424C236.605 209.786 237.336 209.467 238.257 209.467C239.291 209.467 239.995 209.863 240.369 210.656C240.615 210.301 240.934 210.014 241.326 209.795C241.723 209.576 242.19 209.467 242.728 209.467C244.35 209.467 245.175 210.326 245.202 212.044V217H243.938V212.119C243.938 211.59 243.817 211.196 243.575 210.937C243.334 210.672 242.928 210.54 242.358 210.54C241.889 210.54 241.499 210.681 241.189 210.964C240.88 211.242 240.7 211.618 240.649 212.092V217H239.378V212.153C239.378 211.078 238.852 210.54 237.799 210.54C236.969 210.54 236.402 210.893 236.097 211.6V217H234.832V209.604H236.028ZM248.49 217H247.226V209.604H248.49V217ZM247.123 207.642C247.123 207.437 247.185 207.263 247.308 207.122C247.435 206.981 247.622 206.91 247.868 206.91C248.114 206.91 248.301 206.981 248.429 207.122C248.556 207.263 248.62 207.437 248.62 207.642C248.62 207.847 248.556 208.018 248.429 208.154C248.301 208.291 248.114 208.359 247.868 208.359C247.622 208.359 247.435 208.291 247.308 208.154C247.185 208.018 247.123 207.847 247.123 207.642ZM250.22 213.24C250.22 212.087 250.486 211.171 251.02 210.492C251.553 209.809 252.259 209.467 253.139 209.467C254.041 209.467 254.745 209.786 255.251 210.424L255.312 209.604H256.468V216.822C256.468 217.779 256.183 218.534 255.613 219.085C255.048 219.636 254.287 219.912 253.33 219.912C252.797 219.912 252.275 219.798 251.765 219.57C251.254 219.342 250.865 219.03 250.596 218.634L251.252 217.875C251.794 218.545 252.457 218.88 253.241 218.88C253.856 218.88 254.335 218.707 254.677 218.36C255.023 218.014 255.196 217.526 255.196 216.897V216.262C254.69 216.845 254 217.137 253.125 217.137C252.259 217.137 251.557 216.788 251.02 216.091C250.486 215.394 250.22 214.443 250.22 213.24ZM251.491 213.384C251.491 214.218 251.662 214.874 252.004 215.353C252.346 215.826 252.824 216.063 253.439 216.063C254.237 216.063 254.823 215.701 255.196 214.977V211.6C254.809 210.893 254.228 210.54 253.453 210.54C252.838 210.54 252.357 210.779 252.011 211.258C251.664 211.736 251.491 212.445 251.491 213.384ZM258.047 213.233C258.047 212.509 258.188 211.857 258.471 211.278C258.758 210.7 259.154 210.253 259.66 209.938C260.171 209.624 260.752 209.467 261.403 209.467C262.41 209.467 263.224 209.815 263.844 210.513C264.468 211.21 264.78 212.137 264.78 213.295V213.384C264.78 214.104 264.641 214.751 264.363 215.325C264.09 215.895 263.696 216.339 263.181 216.658C262.67 216.977 262.082 217.137 261.417 217.137C260.414 217.137 259.601 216.788 258.977 216.091C258.357 215.394 258.047 214.471 258.047 213.322V213.233ZM259.318 213.384C259.318 214.204 259.507 214.863 259.886 215.359C260.269 215.856 260.779 216.104 261.417 216.104C262.06 216.104 262.57 215.854 262.948 215.353C263.326 214.847 263.516 214.14 263.516 213.233C263.516 212.422 263.322 211.766 262.935 211.265C262.552 210.759 262.041 210.506 261.403 210.506C260.779 210.506 260.275 210.754 259.893 211.251C259.51 211.748 259.318 212.459 259.318 213.384ZM270.673 215.038C270.673 214.696 270.543 214.432 270.283 214.245C270.028 214.054 269.579 213.89 268.937 213.753C268.299 213.616 267.79 213.452 267.412 213.261C267.038 213.069 266.76 212.841 266.578 212.577C266.4 212.313 266.312 211.998 266.312 211.634C266.312 211.028 266.567 210.515 267.077 210.096C267.592 209.676 268.248 209.467 269.046 209.467C269.884 209.467 270.563 209.683 271.083 210.116C271.607 210.549 271.869 211.103 271.869 211.777H270.598C270.598 211.431 270.45 211.132 270.153 210.882C269.862 210.631 269.493 210.506 269.046 210.506C268.586 210.506 268.226 210.606 267.966 210.807C267.706 211.007 267.576 211.269 267.576 211.593C267.576 211.898 267.697 212.128 267.938 212.283C268.18 212.438 268.615 212.586 269.244 212.728C269.878 212.869 270.39 213.037 270.782 213.233C271.174 213.429 271.464 213.666 271.65 213.944C271.842 214.218 271.938 214.553 271.938 214.949C271.938 215.61 271.673 216.141 271.145 216.542C270.616 216.938 269.93 217.137 269.087 217.137C268.494 217.137 267.97 217.032 267.515 216.822C267.059 216.613 266.701 216.321 266.441 215.947C266.186 215.569 266.059 215.161 266.059 214.724H267.323C267.346 215.147 267.515 215.485 267.829 215.735C268.148 215.981 268.567 216.104 269.087 216.104C269.565 216.104 269.948 216.009 270.235 215.817C270.527 215.621 270.673 215.362 270.673 215.038ZM280.127 217.137C279.124 217.137 278.309 216.809 277.68 216.152C277.051 215.492 276.736 214.61 276.736 213.507V213.274C276.736 212.541 276.875 211.887 277.153 211.312C277.436 210.734 277.828 210.283 278.329 209.959C278.835 209.631 279.382 209.467 279.97 209.467C280.931 209.467 281.679 209.784 282.212 210.417C282.745 211.05 283.012 211.957 283.012 213.138V213.664H278.001C278.019 214.393 278.231 214.983 278.637 215.435C279.047 215.881 279.566 216.104 280.195 216.104C280.642 216.104 281.02 216.013 281.33 215.831C281.64 215.649 281.911 215.407 282.144 215.106L282.916 215.708C282.296 216.66 281.367 217.137 280.127 217.137ZM279.97 210.506C279.459 210.506 279.031 210.693 278.685 211.066C278.338 211.436 278.124 211.955 278.042 212.625H281.747V212.529C281.711 211.887 281.537 211.39 281.228 211.039C280.918 210.684 280.498 210.506 279.97 210.506ZM47.4658 237.104C47.917 237.104 48.3112 236.968 48.6484 236.694C48.9857 236.421 49.1725 236.079 49.209 235.669H50.4053C50.3825 236.093 50.2367 236.496 49.9678 236.879C49.6989 237.262 49.3389 237.567 48.8877 237.795C48.4411 238.023 47.9671 238.137 47.4658 238.137C46.4587 238.137 45.6566 237.802 45.0596 237.132C44.4671 236.457 44.1709 235.537 44.1709 234.37V234.158C44.1709 233.438 44.3031 232.798 44.5674 232.237C44.8317 231.677 45.21 231.242 45.7021 230.932C46.1989 230.622 46.7845 230.467 47.459 230.467C48.2884 230.467 48.9766 230.715 49.5234 231.212C50.0749 231.709 50.3688 232.354 50.4053 233.146H49.209C49.1725 232.668 48.9902 232.276 48.6621 231.971C48.3385 231.661 47.9375 231.506 47.459 231.506C46.8164 231.506 46.3174 231.738 45.9619 232.203C45.611 232.663 45.4355 233.331 45.4355 234.206V234.445C45.4355 235.298 45.611 235.954 45.9619 236.414C46.3128 236.874 46.8141 237.104 47.4658 237.104ZM51.4922 234.233C51.4922 233.509 51.6335 232.857 51.916 232.278C52.2031 231.7 52.5996 231.253 53.1055 230.938C53.6159 230.624 54.1969 230.467 54.8486 230.467C55.8558 230.467 56.6693 230.815 57.2891 231.513C57.9134 232.21 58.2256 233.137 58.2256 234.295V234.384C58.2256 235.104 58.0866 235.751 57.8086 236.325C57.5352 236.895 57.141 237.339 56.626 237.658C56.1156 237.977 55.5277 238.137 54.8623 238.137C53.8597 238.137 53.0462 237.788 52.4219 237.091C51.8021 236.394 51.4922 235.471 51.4922 234.322V234.233ZM52.7637 234.384C52.7637 235.204 52.9528 235.863 53.3311 236.359C53.7139 236.856 54.2243 237.104 54.8623 237.104C55.5049 237.104 56.0153 236.854 56.3936 236.353C56.7718 235.847 56.9609 235.14 56.9609 234.233C56.9609 233.422 56.7673 232.766 56.3799 232.265C55.9971 231.759 55.4867 231.506 54.8486 231.506C54.2243 231.506 53.7207 231.754 53.3379 232.251C52.9551 232.748 52.7637 233.459 52.7637 234.384ZM61.001 230.604L61.0352 231.424C61.5775 230.786 62.3089 230.467 63.2295 230.467C64.264 230.467 64.9681 230.863 65.3418 231.656C65.5879 231.301 65.9069 231.014 66.2988 230.795C66.6953 230.576 67.1624 230.467 67.7002 230.467C69.3226 230.467 70.1475 231.326 70.1748 233.044V238H68.9102V233.119C68.9102 232.59 68.7894 232.196 68.5479 231.937C68.3063 231.672 67.9007 231.54 67.3311 231.54C66.8617 231.54 66.472 231.681 66.1621 231.964C65.8522 232.242 65.6722 232.618 65.6221 233.092V238H64.3506V233.153C64.3506 232.078 63.8242 231.54 62.7715 231.54C61.9421 231.54 61.3747 231.893 61.0693 232.6V238H59.8047V230.604H61.001ZM75.1582 238.137C74.1556 238.137 73.3398 237.809 72.7109 237.152C72.082 236.492 71.7676 235.61 71.7676 234.507V234.274C71.7676 233.541 71.9066 232.887 72.1846 232.312C72.4671 231.734 72.859 231.283 73.3604 230.959C73.8662 230.631 74.4131 230.467 75.001 230.467C75.9626 230.467 76.71 230.784 77.2432 231.417C77.7764 232.05 78.043 232.957 78.043 234.138V234.664H73.0322C73.0505 235.393 73.2624 235.983 73.668 236.435C74.0781 236.881 74.5977 237.104 75.2266 237.104C75.6732 237.104 76.0514 237.013 76.3613 236.831C76.6712 236.649 76.9424 236.407 77.1748 236.106L77.9473 236.708C77.3275 237.66 76.3978 238.137 75.1582 238.137ZM75.001 231.506C74.4906 231.506 74.0622 231.693 73.7158 232.066C73.3695 232.436 73.1553 232.955 73.0732 233.625H76.7783V233.529C76.7419 232.887 76.5687 232.39 76.2588 232.039C75.9489 231.684 75.5296 231.506 75.001 231.506ZM82.4795 237.104C82.9307 237.104 83.3249 236.968 83.6621 236.694C83.9993 236.421 84.1862 236.079 84.2227 235.669H85.4189C85.3962 236.093 85.2503 236.496 84.9814 236.879C84.7126 237.262 84.3525 237.567 83.9014 237.795C83.4548 238.023 82.9808 238.137 82.4795 238.137C81.4723 238.137 80.6702 237.802 80.0732 237.132C79.4808 236.457 79.1846 235.537 79.1846 234.37V234.158C79.1846 233.438 79.3167 232.798 79.5811 232.237C79.8454 231.677 80.2236 231.242 80.7158 230.932C81.2126 230.622 81.7982 230.467 82.4727 230.467C83.3021 230.467 83.9902 230.715 84.5371 231.212C85.0885 231.709 85.3825 232.354 85.4189 233.146H84.2227C84.1862 232.668 84.0039 232.276 83.6758 231.971C83.3522 231.661 82.9512 231.506 82.4727 231.506C81.8301 231.506 81.3311 231.738 80.9756 232.203C80.6247 232.663 80.4492 233.331 80.4492 234.206V234.445C80.4492 235.298 80.6247 235.954 80.9756 236.414C81.3265 236.874 81.8278 237.104 82.4795 237.104ZM89.9102 238.137C88.9076 238.137 88.0918 237.809 87.4629 237.152C86.834 236.492 86.5195 235.61 86.5195 234.507V234.274C86.5195 233.541 86.6585 232.887 86.9365 232.312C87.2191 231.734 87.611 231.283 88.1123 230.959C88.6182 230.631 89.165 230.467 89.7529 230.467C90.7145 230.467 91.4619 230.784 91.9951 231.417C92.5283 232.05 92.7949 232.957 92.7949 234.138V234.664H87.7842C87.8024 235.393 88.0143 235.983 88.4199 236.435C88.8301 236.881 89.3496 237.104 89.9785 237.104C90.4251 237.104 90.8034 237.013 91.1133 236.831C91.4232 236.649 91.6943 236.407 91.9268 236.106L92.6992 236.708C92.0794 237.66 91.1497 238.137 89.9102 238.137ZM89.7529 231.506C89.2425 231.506 88.8141 231.693 88.4678 232.066C88.1214 232.436 87.9072 232.955 87.8252 233.625H91.5303V233.529C91.4938 232.887 91.3206 232.39 91.0107 232.039C90.7008 231.684 90.2816 231.506 89.7529 231.506ZM102.304 238C102.231 237.854 102.172 237.594 102.126 237.221C101.538 237.831 100.836 238.137 100.021 238.137C99.2913 238.137 98.6921 237.932 98.2227 237.521C97.7578 237.107 97.5254 236.583 97.5254 235.949C97.5254 235.179 97.8171 234.582 98.4004 234.158C98.9883 233.73 99.8132 233.516 100.875 233.516H102.105V232.935C102.105 232.493 101.973 232.142 101.709 231.882C101.445 231.618 101.055 231.485 100.54 231.485C100.089 231.485 99.7106 231.599 99.4053 231.827C99.0999 232.055 98.9473 232.331 98.9473 232.654H97.6758C97.6758 232.285 97.8057 231.93 98.0654 231.588C98.3298 231.242 98.6852 230.968 99.1318 230.768C99.583 230.567 100.077 230.467 100.615 230.467C101.467 230.467 102.135 230.681 102.618 231.109C103.101 231.533 103.352 232.119 103.37 232.866V236.271C103.37 236.95 103.457 237.49 103.63 237.891V238H102.304ZM100.205 237.036C100.602 237.036 100.978 236.934 101.333 236.729C101.688 236.523 101.946 236.257 102.105 235.929V234.411H101.114C99.5648 234.411 98.79 234.865 98.79 235.771C98.79 236.168 98.9222 236.478 99.1865 236.701C99.4508 236.924 99.7904 237.036 100.205 237.036ZM112.4 231.738C112.209 231.706 112.002 231.69 111.778 231.69C110.949 231.69 110.386 232.044 110.09 232.75V238H108.825V230.604H110.056L110.076 231.458C110.491 230.797 111.079 230.467 111.84 230.467C112.086 230.467 112.273 230.499 112.4 230.562V231.738ZM116.502 238.137C115.499 238.137 114.684 237.809 114.055 237.152C113.426 236.492 113.111 235.61 113.111 234.507V234.274C113.111 233.541 113.25 232.887 113.528 232.312C113.811 231.734 114.203 231.283 114.704 230.959C115.21 230.631 115.757 230.467 116.345 230.467C117.306 230.467 118.054 230.784 118.587 231.417C119.12 232.05 119.387 232.957 119.387 234.138V234.664H114.376C114.394 235.393 114.606 235.983 115.012 236.435C115.422 236.881 115.941 237.104 116.57 237.104C117.017 237.104 117.395 237.013 117.705 236.831C118.015 236.649 118.286 236.407 118.519 236.106L119.291 236.708C118.671 237.66 117.742 238.137 116.502 238.137ZM116.345 231.506C115.834 231.506 115.406 231.693 115.06 232.066C114.713 232.436 114.499 232.955 114.417 233.625H118.122V233.529C118.086 232.887 117.912 232.39 117.603 232.039C117.293 231.684 116.873 231.506 116.345 231.506ZM125.163 236.038C125.163 235.696 125.033 235.432 124.773 235.245C124.518 235.054 124.069 234.89 123.427 234.753C122.789 234.616 122.281 234.452 121.902 234.261C121.529 234.069 121.251 233.841 121.068 233.577C120.891 233.313 120.802 232.998 120.802 232.634C120.802 232.028 121.057 231.515 121.567 231.096C122.082 230.676 122.739 230.467 123.536 230.467C124.375 230.467 125.054 230.683 125.573 231.116C126.097 231.549 126.359 232.103 126.359 232.777H125.088C125.088 232.431 124.94 232.132 124.644 231.882C124.352 231.631 123.983 231.506 123.536 231.506C123.076 231.506 122.716 231.606 122.456 231.807C122.196 232.007 122.066 232.269 122.066 232.593C122.066 232.898 122.187 233.128 122.429 233.283C122.67 233.438 123.105 233.586 123.734 233.728C124.368 233.869 124.881 234.037 125.272 234.233C125.664 234.429 125.954 234.666 126.141 234.944C126.332 235.218 126.428 235.553 126.428 235.949C126.428 236.61 126.163 237.141 125.635 237.542C125.106 237.938 124.42 238.137 123.577 238.137C122.985 238.137 122.461 238.032 122.005 237.822C121.549 237.613 121.191 237.321 120.932 236.947C120.676 236.569 120.549 236.161 120.549 235.724H121.813C121.836 236.147 122.005 236.485 122.319 236.735C122.638 236.981 123.058 237.104 123.577 237.104C124.056 237.104 124.438 237.009 124.726 236.817C125.017 236.621 125.163 236.362 125.163 236.038ZM134.323 234.384C134.323 235.509 134.066 236.416 133.551 237.104C133.036 237.793 132.339 238.137 131.459 238.137C130.561 238.137 129.855 237.852 129.34 237.282V240.844H128.075V230.604H129.23L129.292 231.424C129.807 230.786 130.522 230.467 131.438 230.467C132.327 230.467 133.029 230.802 133.544 231.472C134.063 232.142 134.323 233.074 134.323 234.268V234.384ZM133.059 234.24C133.059 233.406 132.881 232.748 132.525 232.265C132.17 231.782 131.682 231.54 131.062 231.54C130.297 231.54 129.723 231.88 129.34 232.559V236.093C129.718 236.767 130.297 237.104 131.076 237.104C131.682 237.104 132.163 236.865 132.519 236.387C132.879 235.904 133.059 235.188 133.059 234.24ZM135.602 234.233C135.602 233.509 135.743 232.857 136.025 232.278C136.312 231.7 136.709 231.253 137.215 230.938C137.725 230.624 138.306 230.467 138.958 230.467C139.965 230.467 140.779 230.815 141.398 231.513C142.023 232.21 142.335 233.137 142.335 234.295V234.384C142.335 235.104 142.196 235.751 141.918 236.325C141.645 236.895 141.25 237.339 140.735 237.658C140.225 237.977 139.637 238.137 138.972 238.137C137.969 238.137 137.156 237.788 136.531 237.091C135.911 236.394 135.602 235.471 135.602 234.322V234.233ZM136.873 234.384C136.873 235.204 137.062 235.863 137.44 236.359C137.823 236.856 138.334 237.104 138.972 237.104C139.614 237.104 140.125 236.854 140.503 236.353C140.881 235.847 141.07 235.14 141.07 234.233C141.07 233.422 140.877 232.766 140.489 232.265C140.106 231.759 139.596 231.506 138.958 231.506C138.334 231.506 137.83 231.754 137.447 232.251C137.064 232.748 136.873 233.459 136.873 234.384ZM145.117 230.604L145.158 231.533C145.723 230.822 146.462 230.467 147.373 230.467C148.936 230.467 149.725 231.349 149.738 233.112V238H148.474V233.105C148.469 232.572 148.346 232.178 148.104 231.923C147.868 231.668 147.496 231.54 146.99 231.54C146.58 231.54 146.22 231.649 145.91 231.868C145.6 232.087 145.359 232.374 145.186 232.729V238H143.921V230.604H145.117ZM151.338 234.24C151.338 233.105 151.607 232.194 152.145 231.506C152.682 230.813 153.386 230.467 154.257 230.467C155.123 230.467 155.809 230.763 156.314 231.355V227.5H157.579V238H156.417L156.355 237.207C155.85 237.827 155.146 238.137 154.243 238.137C153.386 238.137 152.687 237.786 152.145 237.084C151.607 236.382 151.338 235.466 151.338 234.336V234.24ZM152.603 234.384C152.603 235.222 152.776 235.879 153.122 236.353C153.468 236.826 153.947 237.063 154.558 237.063C155.36 237.063 155.945 236.703 156.314 235.983V232.586C155.936 231.889 155.355 231.54 154.571 231.54C153.951 231.54 153.468 231.779 153.122 232.258C152.776 232.736 152.603 233.445 152.603 234.384ZM162.617 238.137C161.615 238.137 160.799 237.809 160.17 237.152C159.541 236.492 159.227 235.61 159.227 234.507V234.274C159.227 233.541 159.366 232.887 159.644 232.312C159.926 231.734 160.318 231.283 160.819 230.959C161.325 230.631 161.872 230.467 162.46 230.467C163.422 230.467 164.169 230.784 164.702 231.417C165.235 232.05 165.502 232.957 165.502 234.138V234.664H160.491C160.509 235.393 160.721 235.983 161.127 236.435C161.537 236.881 162.057 237.104 162.686 237.104C163.132 237.104 163.51 237.013 163.82 236.831C164.13 236.649 164.401 236.407 164.634 236.106L165.406 236.708C164.786 237.66 163.857 238.137 162.617 238.137ZM162.46 231.506C161.95 231.506 161.521 231.693 161.175 232.066C160.828 232.436 160.614 232.955 160.532 233.625H164.237V233.529C164.201 232.887 164.028 232.39 163.718 232.039C163.408 231.684 162.989 231.506 162.46 231.506ZM170.547 231.738C170.355 231.706 170.148 231.69 169.925 231.69C169.095 231.69 168.533 232.044 168.236 232.75V238H166.972V230.604H168.202L168.223 231.458C168.637 230.797 169.225 230.467 169.986 230.467C170.232 230.467 170.419 230.499 170.547 230.562V231.738ZM181.437 234.384C181.437 235.509 181.179 236.416 180.664 237.104C180.149 237.793 179.452 238.137 178.572 238.137C177.674 238.137 176.968 237.852 176.453 237.282V240.844H175.188V230.604H176.344L176.405 231.424C176.92 230.786 177.636 230.467 178.552 230.467C179.44 230.467 180.142 230.802 180.657 231.472C181.177 232.142 181.437 233.074 181.437 234.268V234.384ZM180.172 234.24C180.172 233.406 179.994 232.748 179.639 232.265C179.283 231.782 178.796 231.54 178.176 231.54C177.41 231.54 176.836 231.88 176.453 232.559V236.093C176.831 236.767 177.41 237.104 178.189 237.104C178.796 237.104 179.276 236.865 179.632 236.387C179.992 235.904 180.172 235.188 180.172 234.24ZM186.119 238.137C185.117 238.137 184.301 237.809 183.672 237.152C183.043 236.492 182.729 235.61 182.729 234.507V234.274C182.729 233.541 182.868 232.887 183.146 232.312C183.428 231.734 183.82 231.283 184.321 230.959C184.827 230.631 185.374 230.467 185.962 230.467C186.924 230.467 187.671 230.784 188.204 231.417C188.737 232.05 189.004 232.957 189.004 234.138V234.664H183.993C184.011 235.393 184.223 235.983 184.629 236.435C185.039 236.881 185.559 237.104 186.188 237.104C186.634 237.104 187.012 237.013 187.322 236.831C187.632 236.649 187.903 236.407 188.136 236.106L188.908 236.708C188.288 237.66 187.359 238.137 186.119 238.137ZM185.962 231.506C185.451 231.506 185.023 231.693 184.677 232.066C184.33 232.436 184.116 232.955 184.034 233.625H187.739V233.529C187.703 232.887 187.53 232.39 187.22 232.039C186.91 231.684 186.491 231.506 185.962 231.506ZM194.049 231.738C193.857 231.706 193.65 231.69 193.427 231.69C192.597 231.69 192.035 232.044 191.738 232.75V238H190.474V230.604H191.704L191.725 231.458C192.139 230.797 192.727 230.467 193.488 230.467C193.734 230.467 193.921 230.499 194.049 230.562V231.738ZM194.78 234.24C194.78 233.087 195.047 232.171 195.58 231.492C196.113 230.809 196.82 230.467 197.699 230.467C198.602 230.467 199.306 230.786 199.812 231.424L199.873 230.604H201.028V237.822C201.028 238.779 200.743 239.534 200.174 240.085C199.609 240.636 198.848 240.912 197.891 240.912C197.357 240.912 196.836 240.798 196.325 240.57C195.815 240.342 195.425 240.03 195.156 239.634L195.812 238.875C196.355 239.545 197.018 239.88 197.802 239.88C198.417 239.88 198.896 239.707 199.237 239.36C199.584 239.014 199.757 238.526 199.757 237.897V237.262C199.251 237.845 198.561 238.137 197.686 238.137C196.82 238.137 196.118 237.788 195.58 237.091C195.047 236.394 194.78 235.443 194.78 234.24ZM196.052 234.384C196.052 235.218 196.223 235.874 196.564 236.353C196.906 236.826 197.385 237.063 198 237.063C198.798 237.063 199.383 236.701 199.757 235.977V232.6C199.369 231.893 198.788 231.54 198.014 231.54C197.398 231.54 196.918 231.779 196.571 232.258C196.225 232.736 196.052 233.445 196.052 234.384ZM207.509 237.269C207.017 237.847 206.294 238.137 205.342 238.137C204.553 238.137 203.952 237.909 203.537 237.453C203.127 236.993 202.92 236.314 202.915 235.416V230.604H204.18V235.382C204.18 236.503 204.635 237.063 205.547 237.063C206.513 237.063 207.156 236.703 207.475 235.983V230.604H208.739V238H207.536L207.509 237.269ZM211.863 230.604L211.904 231.533C212.469 230.822 213.208 230.467 214.119 230.467C215.682 230.467 216.471 231.349 216.484 233.112V238H215.22V233.105C215.215 232.572 215.092 232.178 214.851 231.923C214.614 231.668 214.242 231.54 213.736 231.54C213.326 231.54 212.966 231.649 212.656 231.868C212.346 232.087 212.105 232.374 211.932 232.729V238H210.667V230.604H211.863ZM220.107 228.812V230.604H221.488V231.581H220.107V236.168C220.107 236.464 220.169 236.688 220.292 236.838C220.415 236.984 220.625 237.057 220.921 237.057C221.067 237.057 221.267 237.029 221.522 236.975V238C221.19 238.091 220.866 238.137 220.552 238.137C219.987 238.137 219.561 237.966 219.273 237.624C218.986 237.282 218.843 236.797 218.843 236.168V231.581H217.496V230.604H218.843V228.812H220.107ZM227.538 238C227.465 237.854 227.406 237.594 227.36 237.221C226.772 237.831 226.071 238.137 225.255 238.137C224.526 238.137 223.926 237.932 223.457 237.521C222.992 237.107 222.76 236.583 222.76 235.949C222.76 235.179 223.051 234.582 223.635 234.158C224.223 233.73 225.048 233.516 226.109 233.516H227.34V232.935C227.34 232.493 227.208 232.142 226.943 231.882C226.679 231.618 226.289 231.485 225.774 231.485C225.323 231.485 224.945 231.599 224.64 231.827C224.334 232.055 224.182 232.331 224.182 232.654H222.91C222.91 232.285 223.04 231.93 223.3 231.588C223.564 231.242 223.92 230.968 224.366 230.768C224.817 230.567 225.312 230.467 225.85 230.467C226.702 230.467 227.369 230.681 227.853 231.109C228.336 231.533 228.586 232.119 228.604 232.866V236.271C228.604 236.95 228.691 237.49 228.864 237.891V238H227.538ZM225.439 237.036C225.836 237.036 226.212 236.934 226.567 236.729C226.923 236.523 227.18 236.257 227.34 235.929V234.411H226.349C224.799 234.411 224.024 234.865 224.024 235.771C224.024 236.168 224.157 236.478 224.421 236.701C224.685 236.924 225.025 237.036 225.439 237.036ZM234.894 236.038C234.894 235.696 234.764 235.432 234.504 235.245C234.249 235.054 233.8 234.89 233.157 234.753C232.519 234.616 232.011 234.452 231.633 234.261C231.259 234.069 230.981 233.841 230.799 233.577C230.621 233.313 230.532 232.998 230.532 232.634C230.532 232.028 230.787 231.515 231.298 231.096C231.813 230.676 232.469 230.467 233.267 230.467C234.105 230.467 234.784 230.683 235.304 231.116C235.828 231.549 236.09 232.103 236.09 232.777H234.818C234.818 232.431 234.67 232.132 234.374 231.882C234.082 231.631 233.713 231.506 233.267 231.506C232.806 231.506 232.446 231.606 232.187 231.807C231.927 232.007 231.797 232.269 231.797 232.593C231.797 232.898 231.918 233.128 232.159 233.283C232.401 233.438 232.836 233.586 233.465 233.728C234.098 233.869 234.611 234.037 235.003 234.233C235.395 234.429 235.684 234.666 235.871 234.944C236.062 235.218 236.158 235.553 236.158 235.949C236.158 236.61 235.894 237.141 235.365 237.542C234.837 237.938 234.151 238.137 233.308 238.137C232.715 238.137 232.191 238.032 231.735 237.822C231.28 237.613 230.922 237.321 230.662 236.947C230.407 236.569 230.279 236.161 230.279 235.724H231.544C231.567 236.147 231.735 236.485 232.05 236.735C232.369 236.981 232.788 237.104 233.308 237.104C233.786 237.104 234.169 237.009 234.456 236.817C234.748 236.621 234.894 236.362 234.894 236.038ZM239.221 235.19H238.079L237.99 228.047H239.316L239.221 235.19ZM237.942 237.364C237.942 237.159 238.004 236.988 238.127 236.852C238.255 236.71 238.441 236.64 238.688 236.64C238.934 236.64 239.12 236.71 239.248 236.852C239.376 236.988 239.439 237.159 239.439 237.364C239.439 237.569 239.376 237.74 239.248 237.877C239.12 238.009 238.934 238.075 238.688 238.075C238.441 238.075 238.255 238.009 238.127 237.877C238.004 237.74 237.942 237.569 237.942 237.364Z" fill="#F2F2F2"/>
<path d="M16.4734 187H13.9534L8.24735 178.378V187H5.72735V174.418H8.24735L13.9534 183.058V174.418H16.4734V187ZM28.2337 181.798C28.2337 182.158 28.2097 182.482 28.1617 182.77H20.8717C20.9317 183.49 21.1837 184.054 21.6277 184.462C22.0717 184.87 22.6177 185.074 23.2657 185.074C24.2017 185.074 24.8677 184.672 25.2637 183.868H27.9817C27.6937 184.828 27.1417 185.62 26.3257 186.244C25.5097 186.856 24.5077 187.162 23.3197 187.162C22.3597 187.162 21.4957 186.952 20.7277 186.532C19.9717 186.1 19.3777 185.494 18.9457 184.714C18.5257 183.934 18.3157 183.034 18.3157 182.014C18.3157 180.982 18.5257 180.076 18.9457 179.296C19.3657 178.516 19.9537 177.916 20.7097 177.496C21.4657 177.076 22.3357 176.866 23.3197 176.866C24.2677 176.866 25.1137 177.07 25.8577 177.478C26.6137 177.886 27.1957 178.468 27.6037 179.224C28.0237 179.968 28.2337 180.826 28.2337 181.798ZM25.6237 181.078C25.6117 180.43 25.3777 179.914 24.9217 179.53C24.4657 179.134 23.9077 178.936 23.2477 178.936C22.6237 178.936 22.0957 179.128 21.6637 179.512C21.2437 179.884 20.9857 180.406 20.8897 181.078H25.6237ZM35.5991 176.884C36.7871 176.884 37.7471 177.262 38.4791 178.018C39.2111 178.762 39.5771 179.806 39.5771 181.15V187H37.0571V181.492C37.0571 180.7 36.8591 180.094 36.4631 179.674C36.0671 179.242 35.5271 179.026 34.8431 179.026C34.1471 179.026 33.5951 179.242 33.1871 179.674C32.7911 180.094 32.5931 180.7 32.5931 181.492V187H30.0731V177.028H32.5931V178.27C32.9291 177.838 33.3551 177.502 33.8711 177.262C34.3991 177.01 34.9751 176.884 35.5991 176.884ZM47.5894 176.884C48.3454 176.884 49.0174 177.052 49.6054 177.388C50.1934 177.712 50.6494 178.198 50.9734 178.846C51.3094 179.482 51.4774 180.25 51.4774 181.15V187H48.9574V181.492C48.9574 180.7 48.7594 180.094 48.3634 179.674C47.9674 179.242 47.4274 179.026 46.7434 179.026C46.0474 179.026 45.4954 179.242 45.0874 179.674C44.6914 180.094 44.4934 180.7 44.4934 181.492V187H41.9734V173.68H44.4934V178.27C44.8174 177.838 45.2494 177.502 45.7894 177.262C46.3294 177.01 46.9294 176.884 47.5894 176.884ZM63.2878 177.028V187H60.7498V185.74C60.4258 186.172 59.9998 186.514 59.4718 186.766C58.9558 187.006 58.3918 187.126 57.7798 187.126C56.9998 187.126 56.3098 186.964 55.7098 186.64C55.1098 186.304 54.6358 185.818 54.2878 185.182C53.9518 184.534 53.7838 183.766 53.7838 182.878V177.028H56.3038V182.518C56.3038 183.31 56.5018 183.922 56.8978 184.354C57.2938 184.774 57.8338 184.984 58.5178 184.984C59.2138 184.984 59.7598 184.774 60.1558 184.354C60.5518 183.922 60.7498 183.31 60.7498 182.518V177.028H63.2878ZM78.1582 176.884C79.3822 176.884 80.3662 177.262 81.1102 178.018C81.8662 178.762 82.2442 179.806 82.2442 181.15V187H79.7242V181.492C79.7242 180.712 79.5262 180.118 79.1302 179.71C78.7342 179.29 78.1942 179.08 77.5102 179.08C76.8262 179.08 76.2802 179.29 75.8722 179.71C75.4762 180.118 75.2782 180.712 75.2782 181.492V187H72.7582V181.492C72.7582 180.712 72.5602 180.118 72.1642 179.71C71.7682 179.29 71.2282 179.08 70.5442 179.08C69.8482 179.08 69.2962 179.29 68.8882 179.71C68.4922 180.118 68.2942 180.712 68.2942 181.492V187H65.7742V177.028H68.2942V178.234C68.6182 177.814 69.0322 177.484 69.5362 177.244C70.0522 177.004 70.6162 176.884 71.2282 176.884C72.0082 176.884 72.7042 177.052 73.3162 177.388C73.9282 177.712 74.4022 178.18 74.7382 178.792C75.0622 178.216 75.5302 177.754 76.1422 177.406C76.7662 177.058 77.4382 176.884 78.1582 176.884ZM83.9876 181.978C83.9876 180.97 84.1856 180.076 84.5816 179.296C84.9896 178.516 85.5356 177.916 86.2196 177.496C86.9156 177.076 87.6896 176.866 88.5416 176.866C89.2856 176.866 89.9336 177.016 90.4856 177.316C91.0496 177.616 91.4996 177.994 91.8356 178.45V177.028H94.3736V187H91.8356V185.542C91.5116 186.01 91.0616 186.4 90.4856 186.712C89.9216 187.012 89.2676 187.162 88.5236 187.162C87.6836 187.162 86.9156 186.946 86.2196 186.514C85.5356 186.082 84.9896 185.476 84.5816 184.696C84.1856 183.904 83.9876 182.998 83.9876 181.978ZM91.8356 182.014C91.8356 181.402 91.7156 180.88 91.4756 180.448C91.2356 180.004 90.9116 179.668 90.5036 179.44C90.0956 179.2 89.6576 179.08 89.1896 179.08C88.7216 179.08 88.2896 179.194 87.8936 179.422C87.4976 179.65 87.1736 179.986 86.9216 180.43C86.6816 180.862 86.5616 181.378 86.5616 181.978C86.5616 182.578 86.6816 183.106 86.9216 183.562C87.1736 184.006 87.4976 184.348 87.8936 184.588C88.3016 184.828 88.7336 184.948 89.1896 184.948C89.6576 184.948 90.0956 184.834 90.5036 184.606C90.9116 184.366 91.2356 184.03 91.4756 183.598C91.7156 183.154 91.8356 182.626 91.8356 182.014ZM103.644 178.468C103.968 178.012 104.412 177.634 104.976 177.334C105.552 177.022 106.206 176.866 106.938 176.866C107.79 176.866 108.558 177.076 109.242 177.496C109.938 177.916 110.484 178.516 110.88 179.296C111.288 180.064 111.492 180.958 111.492 181.978C111.492 182.998 111.288 183.904 110.88 184.696C110.484 185.476 109.938 186.082 109.242 186.514C108.558 186.946 107.79 187.162 106.938 187.162C106.206 187.162 105.558 187.012 104.994 186.712C104.442 186.412 103.992 186.034 103.644 185.578V191.752H101.124V177.028H103.644V178.468ZM108.918 181.978C108.918 181.378 108.792 180.862 108.54 180.43C108.3 179.986 107.976 179.65 107.568 179.422C107.172 179.194 106.74 179.08 106.272 179.08C105.816 179.08 105.384 179.2 104.976 179.44C104.58 179.668 104.256 180.004 104.004 180.448C103.764 180.892 103.644 181.414 103.644 182.014C103.644 182.614 103.764 183.136 104.004 183.58C104.256 184.024 104.58 184.366 104.976 184.606C105.384 184.834 105.816 184.948 106.272 184.948C106.74 184.948 107.172 184.828 107.568 184.588C107.976 184.348 108.3 184.006 108.54 183.562C108.792 183.118 108.918 182.59 108.918 181.978ZM122.593 181.798C122.593 182.158 122.569 182.482 122.521 182.77H115.231C115.291 183.49 115.543 184.054 115.987 184.462C116.431 184.87 116.977 185.074 117.625 185.074C118.561 185.074 119.227 184.672 119.623 183.868H122.341C122.053 184.828 121.501 185.62 120.685 186.244C119.869 186.856 118.867 187.162 117.679 187.162C116.719 187.162 115.855 186.952 115.087 186.532C114.331 186.1 113.737 185.494 113.305 184.714C112.885 183.934 112.675 183.034 112.675 182.014C112.675 180.982 112.885 180.076 113.305 179.296C113.725 178.516 114.313 177.916 115.069 177.496C115.825 177.076 116.695 176.866 117.679 176.866C118.627 176.866 119.473 177.07 120.217 177.478C120.973 177.886 121.555 178.468 121.963 179.224C122.383 179.968 122.593 180.826 122.593 181.798ZM119.983 181.078C119.971 180.43 119.737 179.914 119.281 179.53C118.825 179.134 118.267 178.936 117.607 178.936C116.983 178.936 116.455 179.128 116.023 179.512C115.603 179.884 115.345 180.406 115.249 181.078H119.983ZM126.952 178.576C127.276 178.048 127.696 177.634 128.212 177.334C128.74 177.034 129.34 176.884 130.012 176.884V179.53H129.346C128.554 179.53 127.954 179.716 127.546 180.088C127.15 180.46 126.952 181.108 126.952 182.032V187H124.432V177.028H126.952V178.576ZM135.616 176.866C136.36 176.866 137.014 177.016 137.578 177.316C138.142 177.604 138.586 177.982 138.91 178.45V177.028H141.448V187.072C141.448 187.996 141.262 188.818 140.89 189.538C140.518 190.27 139.96 190.846 139.216 191.266C138.472 191.698 137.572 191.914 136.516 191.914C135.1 191.914 133.936 191.584 133.024 190.924C132.124 190.264 131.614 189.364 131.494 188.224H133.996C134.128 188.68 134.41 189.04 134.842 189.304C135.286 189.58 135.82 189.718 136.444 189.718C137.176 189.718 137.77 189.496 138.226 189.052C138.682 188.62 138.91 187.96 138.91 187.072V185.524C138.586 185.992 138.136 186.382 137.56 186.694C136.996 187.006 136.348 187.162 135.616 187.162C134.776 187.162 134.008 186.946 133.312 186.514C132.616 186.082 132.064 185.476 131.656 184.696C131.26 183.904 131.062 182.998 131.062 181.978C131.062 180.97 131.26 180.076 131.656 179.296C132.064 178.516 132.61 177.916 133.294 177.496C133.99 177.076 134.764 176.866 135.616 176.866ZM138.91 182.014C138.91 181.402 138.79 180.88 138.55 180.448C138.31 180.004 137.986 179.668 137.578 179.44C137.17 179.2 136.732 179.08 136.264 179.08C135.796 179.08 135.364 179.194 134.968 179.422C134.572 179.65 134.248 179.986 133.996 180.43C133.756 180.862 133.636 181.378 133.636 181.978C133.636 182.578 133.756 183.106 133.996 183.562C134.248 184.006 134.572 184.348 134.968 184.588C135.376 184.828 135.808 184.948 136.264 184.948C136.732 184.948 137.17 184.834 137.578 184.606C137.986 184.366 138.31 184.03 138.55 183.598C138.79 183.154 138.91 182.626 138.91 182.014ZM153.323 177.028V187H150.785V185.74C150.461 186.172 150.035 186.514 149.507 186.766C148.991 187.006 148.427 187.126 147.815 187.126C147.035 187.126 146.345 186.964 145.745 186.64C145.145 186.304 144.671 185.818 144.323 185.182C143.987 184.534 143.819 183.766 143.819 182.878V177.028H146.339V182.518C146.339 183.31 146.537 183.922 146.933 184.354C147.329 184.774 147.869 184.984 148.553 184.984C149.249 184.984 149.795 184.774 150.191 184.354C150.587 183.922 150.785 183.31 150.785 182.518V177.028H153.323ZM161.335 176.884C162.523 176.884 163.483 177.262 164.215 178.018C164.947 178.762 165.313 179.806 165.313 181.15V187H162.793V181.492C162.793 180.7 162.595 180.094 162.199 179.674C161.803 179.242 161.263 179.026 160.579 179.026C159.883 179.026 159.331 179.242 158.923 179.674C158.527 180.094 158.329 180.7 158.329 181.492V187H155.809V177.028H158.329V178.27C158.665 177.838 159.091 177.502 159.607 177.262C160.135 177.01 160.711 176.884 161.335 176.884ZM170.644 179.098V183.922C170.644 184.258 170.722 184.504 170.878 184.66C171.046 184.804 171.322 184.876 171.706 184.876H172.876V187H171.292C169.168 187 168.106 185.968 168.106 183.904V179.098H166.918V177.028H168.106V174.562H170.644V177.028H172.876V179.098H170.644ZM174.04 181.978C174.04 180.97 174.238 180.076 174.634 179.296C175.042 178.516 175.588 177.916 176.272 177.496C176.968 177.076 177.742 176.866 178.594 176.866C179.338 176.866 179.986 177.016 180.538 177.316C181.102 177.616 181.552 177.994 181.888 178.45V177.028H184.426V187H181.888V185.542C181.564 186.01 181.114 186.4 180.538 186.712C179.974 187.012 179.32 187.162 178.576 187.162C177.736 187.162 176.968 186.946 176.272 186.514C175.588 186.082 175.042 185.476 174.634 184.696C174.238 183.904 174.04 182.998 174.04 181.978ZM181.888 182.014C181.888 181.402 181.768 180.88 181.528 180.448C181.288 180.004 180.964 179.668 180.556 179.44C180.148 179.2 179.71 179.08 179.242 179.08C178.774 179.08 178.342 179.194 177.946 179.422C177.55 179.65 177.226 179.986 176.974 180.43C176.734 180.862 176.614 181.378 176.614 181.978C176.614 182.578 176.734 183.106 176.974 183.562C177.226 184.006 177.55 184.348 177.946 184.588C178.354 184.828 178.786 184.948 179.242 184.948C179.71 184.948 180.148 184.834 180.556 184.606C180.964 184.366 181.288 184.03 181.528 183.598C181.768 183.154 181.888 182.626 181.888 182.014ZM193.697 178.468C194.021 178.012 194.465 177.634 195.029 177.334C195.605 177.022 196.259 176.866 196.991 176.866C197.843 176.866 198.611 177.076 199.295 177.496C199.991 177.916 200.537 178.516 200.933 179.296C201.341 180.064 201.545 180.958 201.545 181.978C201.545 182.998 201.341 183.904 200.933 184.696C200.537 185.476 199.991 186.082 199.295 186.514C198.611 186.946 197.843 187.162 196.991 187.162C196.259 187.162 195.611 187.012 195.047 186.712C194.495 186.412 194.045 186.034 193.697 185.578V191.752H191.177V177.028H193.697V178.468ZM198.971 181.978C198.971 181.378 198.845 180.862 198.593 180.43C198.353 179.986 198.029 179.65 197.621 179.422C197.225 179.194 196.793 179.08 196.325 179.08C195.869 179.08 195.437 179.2 195.029 179.44C194.633 179.668 194.309 180.004 194.057 180.448C193.817 180.892 193.697 181.414 193.697 182.014C193.697 182.614 193.817 183.136 194.057 183.58C194.309 184.024 194.633 184.366 195.029 184.606C195.437 184.834 195.869 184.948 196.325 184.948C196.793 184.948 197.225 184.828 197.621 184.588C198.029 184.348 198.353 184.006 198.593 183.562C198.845 183.118 198.971 182.59 198.971 181.978ZM207.804 187.162C206.844 187.162 205.98 186.952 205.212 186.532C204.444 186.1 203.838 185.494 203.394 184.714C202.962 183.934 202.746 183.034 202.746 182.014C202.746 180.994 202.968 180.094 203.412 179.314C203.868 178.534 204.486 177.934 205.266 177.514C206.046 177.082 206.916 176.866 207.876 176.866C208.836 176.866 209.706 177.082 210.486 177.514C211.266 177.934 211.878 178.534 212.322 179.314C212.778 180.094 213.006 180.994 213.006 182.014C213.006 183.034 212.772 183.934 212.304 184.714C211.848 185.494 211.224 186.1 210.432 186.532C209.652 186.952 208.776 187.162 207.804 187.162ZM207.804 184.966C208.26 184.966 208.686 184.858 209.082 184.642C209.49 184.414 209.814 184.078 210.054 183.634C210.294 183.19 210.414 182.65 210.414 182.014C210.414 181.066 210.162 180.34 209.658 179.836C209.166 179.32 208.56 179.062 207.84 179.062C207.12 179.062 206.514 179.32 206.022 179.836C205.542 180.34 205.302 181.066 205.302 182.014C205.302 182.962 205.536 183.694 206.004 184.21C206.484 184.714 207.084 184.966 207.804 184.966ZM217.374 178.576C217.698 178.048 218.118 177.634 218.634 177.334C219.162 177.034 219.762 176.884 220.434 176.884V179.53H219.768C218.976 179.53 218.376 179.716 217.968 180.088C217.572 180.46 217.374 181.108 217.374 182.032V187H214.854V177.028H217.374V178.576ZM225.773 181.978C225.773 180.97 225.971 180.076 226.367 179.296C226.775 178.516 227.321 177.916 228.005 177.496C228.701 177.076 229.475 176.866 230.327 176.866C231.071 176.866 231.719 177.016 232.271 177.316C232.835 177.616 233.285 177.994 233.621 178.45V177.028H236.159V187H233.621V185.542C233.297 186.01 232.847 186.4 232.271 186.712C231.707 187.012 231.053 187.162 230.309 187.162C229.469 187.162 228.701 186.946 228.005 186.514C227.321 186.082 226.775 185.476 226.367 184.696C225.971 183.904 225.773 182.998 225.773 181.978ZM233.621 182.014C233.621 181.402 233.501 180.88 233.261 180.448C233.021 180.004 232.697 179.668 232.289 179.44C231.881 179.2 231.443 179.08 230.975 179.08C230.507 179.08 230.075 179.194 229.679 179.422C229.283 179.65 228.959 179.986 228.707 180.43C228.467 180.862 228.347 181.378 228.347 181.978C228.347 182.578 228.467 183.106 228.707 183.562C228.959 184.006 229.283 184.348 229.679 184.588C230.087 184.828 230.519 184.948 230.975 184.948C231.443 184.948 231.881 184.834 232.289 184.606C232.697 184.366 233.021 184.03 233.261 183.598C233.501 183.154 233.621 182.626 233.621 182.014ZM237.972 181.996C237.972 181 238.176 180.118 238.584 179.35C239.004 178.57 239.568 177.964 240.276 177.532C240.984 177.1 241.764 176.884 242.616 176.884C243.324 176.884 243.948 177.022 244.488 177.298C245.04 177.562 245.484 177.904 245.82 178.324V177.028H248.358V191.752H245.82V185.632C245.484 186.064 245.034 186.424 244.47 186.712C243.906 187 243.27 187.144 242.562 187.144C241.722 187.144 240.948 186.928 240.24 186.496C239.544 186.052 238.992 185.44 238.584 184.66C238.176 183.88 237.972 182.992 237.972 181.996ZM245.82 182.014C245.82 181.402 245.694 180.874 245.442 180.43C245.19 179.986 244.86 179.65 244.452 179.422C244.056 179.194 243.63 179.08 243.174 179.08C242.73 179.08 242.304 179.194 241.896 179.422C241.5 179.65 241.176 179.986 240.924 180.43C240.672 180.862 240.546 181.384 240.546 181.996C240.546 182.608 240.672 183.142 240.924 183.598C241.176 184.042 241.5 184.378 241.896 184.606C242.304 184.834 242.73 184.948 243.174 184.948C243.63 184.948 244.056 184.834 244.452 184.606C244.86 184.378 245.19 184.042 245.442 183.598C245.694 183.154 245.82 182.626 245.82 182.014ZM260.233 177.028V187H257.695V185.74C257.371 186.172 256.945 186.514 256.417 186.766C255.901 187.006 255.337 187.126 254.725 187.126C253.945 187.126 253.255 186.964 252.655 186.64C252.055 186.304 251.581 185.818 251.233 185.182C250.897 184.534 250.729 183.766 250.729 182.878V177.028H253.249V182.518C253.249 183.31 253.447 183.922 253.843 184.354C254.239 184.774 254.779 184.984 255.463 184.984C256.159 184.984 256.705 184.774 257.101 184.354C257.497 183.922 257.695 183.31 257.695 182.518V177.028H260.233ZM263.998 175.84C263.554 175.84 263.182 175.702 262.882 175.426C262.594 175.138 262.45 174.784 262.45 174.364C262.45 173.944 262.594 173.596 262.882 173.32C263.182 173.032 263.554 172.888 263.998 172.888C264.442 172.888 264.808 173.032 265.096 173.32C265.396 173.596 265.546 173.944 265.546 174.364C265.546 174.784 265.396 175.138 265.096 175.426C264.808 175.702 264.442 175.84 263.998 175.84ZM265.24 177.028V187H262.72V177.028H265.24ZM268.845 187.126C268.389 187.126 268.011 186.988 267.711 186.712C267.423 186.424 267.279 186.07 267.279 185.65C267.279 185.23 267.423 184.882 267.711 184.606C268.011 184.318 268.389 184.174 268.845 184.174C269.289 184.174 269.655 184.318 269.943 184.606C270.231 184.882 270.375 185.23 270.375 185.65C270.375 186.07 270.231 186.424 269.943 186.712C269.655 186.988 269.289 187.126 268.845 187.126ZM273.521 187.126C273.065 187.126 272.687 186.988 272.387 186.712C272.099 186.424 271.955 186.07 271.955 185.65C271.955 185.23 272.099 184.882 272.387 184.606C272.687 184.318 273.065 184.174 273.521 184.174C273.965 184.174 274.331 184.318 274.619 184.606C274.907 184.882 275.051 185.23 275.051 185.65C275.051 186.07 274.907 186.424 274.619 186.712C274.331 186.988 273.965 187.126 273.521 187.126ZM278.197 187.126C277.741 187.126 277.363 186.988 277.063 186.712C276.775 186.424 276.631 186.07 276.631 185.65C276.631 185.23 276.775 184.882 277.063 184.606C277.363 184.318 277.741 184.174 278.197 184.174C278.641 184.174 279.007 184.318 279.295 184.606C279.583 184.882 279.727 185.23 279.727 185.65C279.727 186.07 279.583 186.424 279.295 186.712C279.007 186.988 278.641 187.126 278.197 187.126Z" fill="#F8F8F8"/>
<circle opacity="0.1" cx="140" cy="75" r="75" fill="#E26C00"/>
<path d="M74 30.7229V63.7836V66.145C74 68.7534 76.1145 70.868 78.7229 70.868H109.422L122.036 82.5118C122.883 83.2934 124.233 82.5235 123.992 81.3968L121.229 68.5065H129.495C132.103 68.5065 134.218 66.392 134.218 63.7836V30.7229C134.218 28.1145 132.103 26 129.495 26H78.7229C76.1145 26 74 28.1145 74 30.7229Z" fill="url(#paint0_linear)"/>
<path d="M218.218 55.7229V88.7836V91.145C218.218 93.7534 216.103 95.868 213.495 95.868H182.795L170.181 107.512C169.335 108.293 167.984 107.524 168.226 106.397L170.988 93.5065H162.723C160.115 93.5065 158 91.392 158 88.7836V55.7229C158 53.1145 160.115 51 162.723 51H213.495C216.103 51 218.218 53.1145 218.218 55.7229Z" fill="url(#paint1_linear)"/>
<circle cx="174.5" cy="72.5" r="3.5" fill="#F8F8F8"/>
<circle cx="187.5" cy="72.5" r="3.5" fill="#F8F8F8"/>
<circle cx="200.5" cy="72.5" r="3.5" fill="#F8F8F8"/>
<path d="M110 101.41V118.281V119.486C110 120.817 111.089 121.896 112.431 121.896H128.235L134.729 127.838C135.165 128.237 135.86 127.844 135.736 127.269L134.314 120.691H138.569C139.911 120.691 141 119.612 141 118.281V101.41C141 100.079 139.911 99 138.569 99H112.431C111.089 99 110 100.079 110 101.41Z" fill="#E7AD00"/>
<circle cx="90.5" cy="47.5" r="3.5" fill="#F8F8F8"/>
<circle cx="103.5" cy="47.5" r="3.5" fill="#F8F8F8"/>
<circle cx="116.5" cy="47.5" r="3.5" fill="#F8F8F8"/>
<circle opacity="0.7" cx="118.015" cy="110.333" r="2.01515" fill="#F8F8F8"/>
<circle opacity="0.7" cx="125.5" cy="110.333" r="2.01515" fill="#F8F8F8"/>
<circle opacity="0.7" cx="132.985" cy="110.333" r="2.01515" fill="#F8F8F8"/>
<defs>
<linearGradient id="paint0_linear" x1="104.109" y1="26" x2="104.109" y2="82.8297" gradientUnits="userSpaceOnUse">
<stop stop-color="#E26C00"/>
<stop offset="1" stop-color="#723700"/>
</linearGradient>
<linearGradient id="paint1_linear" x1="188.109" y1="51" x2="188.109" y2="107.83" gradientUnits="userSpaceOnUse">
<stop stop-color="#E7AD00"/>
<stop offset="1" stop-color="#836200"/>
</linearGradient>
</defs>
</svg>
