<svg width="500" height="500" viewBox="0 0 500 500" fill="none" xmlns="http://www.w3.org/2000/svg">
<g clip-path="url(#clip0)">
<path d="M146.88 375.528C273.152 375.528 375.504 273.16 375.504 146.888C375.504 90.936 355.344 39.752 321.984 0.00799561C425.056 33.096 499.696 129.64 499.696 243.704C499.696 385.096 385.088 499.704 243.696 499.704C129.632 499.704 33.088 425.064 0 321.992C39.744 355.368 90.944 375.528 146.88 375.528Z" fill="#FFD347"/>
<path d="M401.92 42.776C436.16 86.28 456.736 141.048 456.736 200.728C456.736 342.12 342.128 456.728 200.736 456.728C141.056 456.728 86.2879 436.152 42.7839 401.912C89.6319 461.384 162.128 499.704 243.712 499.704C385.104 499.704 499.712 385.096 499.712 243.704C499.712 162.12 461.392 89.64 401.92 42.776Z" fill="#FFD347"/>
<path d="M128.128 99.944L154.496 153.4L213.472 161.96L170.8 203.56L180.864 262.296L128.128 234.568L75.3761 262.296L85.4401 203.56L42.7681 161.96L101.744 153.4L128.128 99.944Z" fill="#FFD347"/>
<path d="M276.864 82.84L290.528 110.552L321.104 114.984L298.976 136.552L304.208 166.984L276.864 152.616L249.52 166.984L254.752 136.552L232.624 114.984L263.2 110.552L276.864 82.84Z" fill="#FFD347"/>
</g>
<defs>
<clipPath id="clip0">
<rect width="499.712" height="499.712" fill="white"/>
</clipPath>
</defs>
</svg>
